<svg xmlns="http://www.w3.org/2000/svg" viewBox="0 0 128 128" width="128" height="128">
  <!-- Body -->
  <ellipse cx="58" cy="82" rx="30" ry="28" fill="#4a7c59"/>
  <!-- Tail -->
  <path d="M28 82 C20 78, 8 84, 4 76 C2 72, 6 68, 10 70 C14 72, 16 76, 28 78" fill="#4a7c59"/>
  <!-- Neck -->
  <path d="M72 66 C76 52, 78 40, 74 30" fill="none" stroke="#4a7c59" stroke-width="16" stroke-linecap="round"/>
  <!-- Head -->
  <ellipse cx="74" cy="24" rx="16" ry="13" fill="#4a7c59"/>
  <!-- Snout -->
  <ellipse cx="88" cy="26" rx="10" ry="8" fill="#5a9468"/>
  <!-- Eye -->
  <circle cx="78" cy="20" r="4" fill="#1a1a1a"/>
  <circle cx="79.5" cy="18.5" r="1.5" fill="#fff"/>
  <!-- Nostril -->
  <circle cx="93" cy="24" r="1.5" fill="#3a6348"/>
  <!-- Mouth -->
  <path d="M86 30 Q90 33, 96 30" fill="none" stroke="#3a6348" stroke-width="1.5" stroke-linecap="round"/>
  <!-- Belly -->
  <ellipse cx="58" cy="88" rx="20" ry="18" fill="#5a9468"/>
  <!-- Back legs -->
  <rect x="44" y="102" width="10" height="16" rx="4" fill="#4a7c59"/>
  <rect x="62" y="102" width="10" height="16" rx="4" fill="#4a7c59"/>
  <!-- Front leg -->
  <rect x="76" y="72" width="8" height="14" rx="3" fill="#4a7c59"/>
  <!-- Feet -->
  <ellipse cx="49" cy="119" rx="8" ry="4" fill="#3a6348"/>
  <ellipse cx="67" cy="119" rx="8" ry="4" fill="#3a6348"/>
  <ellipse cx="80" cy="87" rx="6" ry="3" fill="#3a6348"/>
  <!-- Back spines -->
  <path d="M42 58 L46 48 L52 58" fill="#5a9468"/>
  <path d="M52 54 L56 44 L62 54" fill="#5a9468"/>
  <path d="M62 54 L66 46 L70 56" fill="#5a9468"/>
  <!-- Tiny arm -->
  <path d="M78 64 C84 62, 88 58, 86 54" fill="none" stroke="#4a7c59" stroke-width="5" stroke-linecap="round"/>
</svg>
